<?xml version="1.0" standalone="no"?>
<!DOCTYPE svg PUBLIC "-//W3C//DTD SVG 20010904//EN"
 "http://www.w3.org/TR/2001/REC-SVG-20010904/DTD/svg10.dtd">
<svg version="1.0" xmlns="http://www.w3.org/2000/svg"
 width="512.000000pt" height="512.000000pt" viewBox="0 0 512.000000 512.000000"
 preserveAspectRatio="xMidYMid meet">

<g transform="translate(0.000000,512.000000) scale(0.100000,-0.100000)"
fill="#000000" stroke="none">
<path d="M786 4629 c-62 -15 -153 -68 -197 -116 -22 -24 -55 -74 -72 -111
l-32 -67 0 -1456 0 -1455 37 -76 c45 -91 103 -147 196 -191 l67 -32 688 -3
687 -3 0 -79 0 -80 -216 0 c-257 0 -279 -5 -349 -75 -64 -63 -75 -100 -75
-244 0 -105 1 -113 25 -136 l24 -25 991 0 991 0 24 25 c24 23 25 31 25 136 0
137 -11 177 -67 239 -66 74 -94 80 -355 80 l-218 0 0 80 0 79 688 3 688 3 76
37 c91 45 147 103 191 196 l32 67 0 1455 0 1455 -32 67 c-44 93 -100 151 -191
196 l-76 37 -1755 2 c-1038 0 -1772 -3 -1795 -8z m3559 -176 c47 -25 86 -64
111 -113 15 -28 19 -65 22 -187 l4 -153 -1922 0 -1922 0 4 153 c3 122 7 159
22 187 35 68 92 114 161 131 17 4 806 6 1755 6 l1725 -2 40 -22z m133 -1805
c-3 -1142 -4 -1194 -22 -1228 -26 -49 -64 -88 -111 -113 l-40 -22 -1745 0
-1745 0 -40 22 c-47 25 -85 64 -111 113 -18 34 -19 86 -22 1228 l-2 1192 1920
0 1920 0 -2 -1192z"/>
<path d="M905 4295 c-50 -49 -15 -135 55 -135 41 0 80 39 80 80 0 41 -39 80
-80 80 -19 0 -40 -9 -55 -25z"/>
<path d="M1225 4295 c-50 -49 -15 -135 55 -135 41 0 80 39 80 80 0 41 -39 80
-80 80 -19 0 -40 -9 -55 -25z"/>
<path d="M1545 4295 c-50 -49 -15 -135 55 -135 41 0 80 39 80 80 0 41 -39 80
-80 80 -19 0 -40 -9 -55 -25z"/>
<path d="M3293 3662 c-181 -151 -258 -244 -328 -395 -104 -225 -111 -502 -19
-742 3 -8 -65 -69 -173 -155 -98 -78 -186 -151 -195 -162 -16 -18 -18 -49 -18
-330 l0 -309 25 -24 c43 -43 64 -35 276 106 170 113 200 129 217 120 14 -7
136 -11 362 -11 296 0 346 2 369 16 27 16 31 14 219 -80 105 -53 203 -96 217
-96 14 0 37 11 50 25 l25 24 0 265 c0 145 -3 271 -6 280 -3 9 -91 84 -196 167
-109 88 -187 157 -184 164 92 240 85 517 -19 742 -70 151 -147 244 -328 395
-90 75 -124 98 -147 98 -23 0 -57 -23 -147 -98z m228 -155 c180 -154 269 -299
305 -497 28 -155 9 -284 -69 -488 l-52 -137 -265 0 -264 0 -43 110 c-24 61
-52 141 -63 178 -75 266 7 566 207 758 66 63 155 139 164 139 3 0 39 -28 80
-63z m159 -1437 l0 -150 -240 0 -240 0 0 150 0 150 240 0 240 0 0 -150z"/>
<path d="M825 3655 l-25 -24 0 -551 0 -551 25 -24 24 -25 751 0 751 0 24 25
25 24 0 551 0 551 -25 24 -24 25 -751 0 -751 0 -24 -25z m1415 -575 l0 -440
-640 0 -640 0 0 440 0 440 640 0 640 0 0 -440z"/>
<path d="M825 2295 c-16 -15 -25 -36 -25 -55 0 -19 9 -40 25 -55 l24 -25 751
0 751 0 24 25 c33 32 33 78 0 110 l-24 25 -751 0 -751 0 -24 -25z"/>
<path d="M825 2055 c-16 -15 -25 -36 -25 -55 0 -19 9 -40 25 -55 l24 -25 751
0 751 0 24 25 c33 32 33 78 0 110 l-24 25 -751 0 -751 0 -24 -25z"/>
<path d="M825 1815 c-16 -15 -25 -36 -25 -55 0 -19 9 -40 25 -55 l24 -25 751
0 751 0 24 25 c33 32 33 78 0 110 l-24 25 -751 0 -751 0 -24 -25z"/>
<path d="M3145 1655 c-22 -21 -25 -33 -25 -95 0 -62 3 -74 25 -95 15 -16 36
-25 55 -25 19 0 40 9 55 25 22 21 25 33 25 95 0 62 -3 74 -25 95 -15 16 -36
25 -55 25 -19 0 -40 -9 -55 -25z"/>
<path d="M3385 1655 c-24 -23 -25 -31 -25 -135 0 -104 1 -112 25 -135 15 -16
36 -25 55 -25 19 0 40 9 55 25 24 23 25 31 25 135 0 104 -1 112 -25 135 -15
16 -36 25 -55 25 -19 0 -40 -9 -55 -25z"/>
<path d="M3625 1655 c-22 -21 -25 -33 -25 -95 0 -62 3 -74 25 -95 15 -16 36
-25 55 -25 19 0 40 9 55 25 22 21 25 33 25 95 0 62 -3 74 -25 95 -15 16 -36
25 -55 25 -19 0 -40 -9 -55 -25z"/>
<path d="M825 1575 c-16 -15 -25 -36 -25 -55 0 -19 9 -40 25 -55 l24 -25 751
0 751 0 24 25 c33 32 33 78 0 110 l-24 25 -751 0 -751 0 -24 -25z"/>
</g>
</svg>
